<svg xmlns="http://www.w3.org/2000/svg" viewBox="0 0 6653 10815" fill="none" stroke="currentColor" stroke-width="150" stroke-linecap="round" stroke-linejoin="round" role="img" aria-label="Circuit layout"><path d="M1395 2925 L1567 2579 L1725 2266 L1834 2051 L1953 1820 L2038 1654 L2088 1554 L2260 1222 L2361 1031 L2450 869 L2492 796 L2612 600 L2698 479 L2802 355 L2839 318 L2933 238 L3016 189 L3124 154 L3197 150 L3254 156 L3326 180 L3413 235 L3427 246 L3469 289 L3542 378 L3585 438 L3651 527 L3722 611 L3785 673 L3854 722 L3900 745 L4070 769 L4167 757 L4295 732 L4351 721 L4508 695 L4644 679 L4834 677 L5041 704 L5242 764 L5346 804 L5547 920 L5644 992 L5812 1151 L5950 1324 L6010 1419 L6124 1648 L6174 1785 L6216 1939 L6255 2172 L6269 2329 L6282 2617 L6291 2897 L6298 3071 L6304 3230 L6310 3424 L6317 3717 L6321 3881 L6331 4247 L6339 4472 L6352 4795 L6367 5174 L6374 5330 L6384 5538 L6390 5678 L6408 6047 L6417 6230 L6428 6443 L6439 6675 L6447 6836 L6456 7015 L6473 7281 L6486 7469 L6495 7609 L6503 7810 L6484 8040 L6461 8139 L6429 8234 L6373 8350 L6319 8428 L6245 8498 L6149 8558 L6013 8609 L5912 8632 L5823 8642 L5644 8647 L5513 8643 L5366 8627 L5261 8608 L5166 8589 L5046 8559 L4877 8502 L4770 8456 L4668 8397 L4569 8327 L4466 8240 L4333 8099 L4186 7909 L4017 7610 L3982 7528 L3924 7391 L3825 7159 L3740 6963 L3636 6721 L3559 6541 L3504 6412 L3416 6192 L3345 6015 L3262 5808 L3166 5570 L3069 5330 L2981 5122 L2905 4972 L2802 4820 L2723 4732 L2573 4612 L2388 4520 L2283 4485 L2132 4453 L2004 4444 L1863 4459 L1746 4487 L1657 4517 L1582 4553 L1480 4615 L1319 4747 L1175 4919 L1114 5014 L1031 5172 L989 5263 L945 5369 L884 5532 L874 5563 L836 5701 L817 5815 L810 5906 L812 5996 L827 6098 L856 6180 L896 6237 L951 6277 L1037 6304 L1079 6309 L1132 6306 L1172 6300 L1234 6287 L1331 6261 L1415 6237 L1494 6217 L1577 6202 L1685 6195 L1786 6208 L1810 6214 L1873 6239 L1959 6300 L1993 6339 L2016 6372 L2055 6460 L2065 6530 L2062 6618 L2050 6677 L2008 6783 L1937 6893 L1906 6932 L1810 7031 L1726 7102 L1599 7195 L1531 7241 L1346 7371 L1246 7450 L1133 7550 L1056 7624 L906 7797 L811 7934 L758 8026 L734 8075 L702 8155 L684 8218 L672 8287 L665 8412 L683 8498 L707 8545 L762 8601 L818 8624 L871 8633 L926 8631 L1006 8615 L1066 8594 L1117 8571 L1192 8527 L1238 8497 L1311 8444 L1365 8401 L1421 8352 L1498 8284 L1593 8206 L1740 8096 L1817 8046 L1920 7997 L2089 7955 L2157 7949 L2305 7950 L2489 7972 L2683 8025 L2717 8040 L2904 8141 L3037 8242 L3121 8323 L3213 8437 L3307 8587 L3371 8726 L3455 8950 L3501 9089 L3534 9190 L3577 9313 L3672 9597 L3704 9703 L3764 9901 L3792 10025 L3800 10090 L3802 10111 L3800 10179 L3754 10344 L3737 10372 L3699 10423 L3635 10486 L3543 10540 L3464 10572 L3379 10597 L3295 10616 L3130 10641 L3068 10650 L2926 10662 L2836 10665 L2637 10654 L2505 10634 L2369 10607 L2256 10575 L2077 10514 L1925 10452 L1748 10368 L1572 10274 L1431 10190 L1305 10105 L1136 9978 L932 9797 L831 9693 L773 9626 L588 9373 L509 9242 L399 9014 L371 8943 L324 8811 L265 8601 L234 8463 L207 8307 L187 8166 L164 7911 L154 7668 L152 7487 L150 7157 L150 7023 L152 6872 L164 6617 L172 6498 L203 6206 L233 5997 L288 5703 L335 5496 L388 5290 L444 5103 L489 4967 L566 4747 L586 4697 L671 4479 L754 4278 L841 4078 L894 3963 L972 3797 L1042 3649 L1146 3433 L1210 3302 L1283 3154"/></svg>
