<svg xmlns="http://www.w3.org/2000/svg" viewBox="0 0 12168 20053" fill="none" stroke="currentColor" stroke-width="279" stroke-linecap="round" stroke-linejoin="round" role="img" aria-label="Circuit layout"><path d="M2050 18627 L2000 18568 L1882 18432 L1857 18404 L1761 18297 L1651 18173 L1568 18080 L1446 17945 L1387 17879 L1265 17742 L1148 17613 L1055 17508 L1004 17451 L913 17349 L874 17306 L832 17259 L756 17176 L687 17099 L651 17060 L596 16999 L561 16961 L494 16882 L447 16818 L438 16803 L405 16742 L384 16683 L373 16642 L368 16608 L366 16518 L377 16452 L388 16415 L391 16406 L420 16342 L444 16302 L485 16249 L532 16202 L583 16162 L638 16130 L700 16103 L738 16091 L783 16079 L841 16068 L889 16062 L933 16060 L983 16060 L1024 16062 L1132 16080 L1188 16095 L1235 16111 L1288 16134 L1369 16175 L1491 16250 L1531 16277 L1589 16320 L1664 16381 L1691 16405 L1766 16477 L1812 16523 L1857 16568 L1901 16611 L1927 16635 L2022 16722 L2057 16751 L2144 16805 L2191 16829 L2247 16851 L2295 16865 L2426 16887 L2491 16890 L2536 16887 L2592 16881 L2680 16864 L2733 16851 L2753 16845 L2872 16803 L2954 16764 L3002 16738 L3048 16712 L3120 16664 L3158 16636 L3209 16592 L3292 16510 L3314 16483 L3347 16442 L3394 16376 L3421 16333 L3495 16187 L3528 16092 L3546 16025 L3566 15925 L3579 15841 L3595 15712 L3605 15614 L3614 15521 L3620 15453 L3629 15330 L3638 15195 L3644 15106 L3650 15005 L3659 14868 L3665 14775 L3673 14626 L3680 14476 L3684 14395 L3690 14235 L3699 14009 L3705 13875 L3707 13813 L3712 13698 L3716 13602 L3720 13500 L3724 13397 L3729 13276 L3736 13092 L3741 12938 L3746 12800 L3752 12649 L3755 12561 L3758 12466 L3765 12268 L3771 12086 L3774 11998 L3780 11836 L3786 11674 L3795 11414 L3802 11202 L3809 11001 L3817 10792 L3828 10473 L3830 10407 L3836 10232 L3841 10097 L3847 9920 L3856 9661 L3860 9552 L3866 9386 L3872 9225 L3878 9040 L3883 8887 L3887 8776 L3890 8700 L3895 8559 L3896 8524 L3898 8455 L3902 8340 L3906 8234 L3909 8161 L3910 8128 L3913 8052 L3913 7982 L3906 7878 L3898 7821 L3884 7751 L3860 7663 L3848 7628 L3827 7577 L3806 7535 L3785 7498 L3768 7474 L3745 7447 L3705 7410 L3673 7389 L3629 7370 L3601 7362 L3513 7348 L3446 7345 L3397 7344 L3364 7344 L3311 7344 L3240 7343 L3176 7343 L3112 7343 L3062 7343 L2949 7342 L2857 7341 L2809 7341 L2711 7340 L2630 7339 L2478 7338 L2359 7337 L2235 7337 L2096 7336 L2021 7335 L2001 7334 L1898 7327 L1811 7315 L1685 7287 L1545 7245 L1391 7184 L1325 7153 L1251 7113 L1152 7054 L1068 7001 L982 6942 L900 6877 L822 6806 L758 6740 L737 6718 L609 6557 L583 6523 L514 6419 L491 6379 L423 6251 L394 6186 L368 6120 L344 6052 L316 5956 L292 5847 L282 5771 L279 5716 L280 5669 L287 5609 L296 5562 L311 5511 L319 5489 L321 5487 L339 5447 L363 5404 L415 5344 L433 5329 L488 5298 L517 5286 L552 5275 L577 5267 L628 5250 L681 5227 L713 5209 L751 5178 L778 5151 L797 5127 L825 5080 L837 5051 L846 5022 L852 4991 L855 4903 L846 4853 L837 4818 L822 4777 L786 4700 L745 4624 L694 4535 L671 4496 L642 4443 L585 4323 L569 4279 L560 4247 L548 4190 L543 4147 L541 4104 L543 4069 L545 4049 L551 4006 L570 3941 L596 3887 L622 3850 L648 3825 L694 3794 L709 3788 L762 3771 L820 3764 L881 3761 L906 3761 L975 3763 L1034 3764 L1071 3766 L1134 3767 L1144 3767 L1255 3769 L1300 3769 L1395 3772 L1493 3774 L1587 3775 L1693 3778 L1775 3780 L1853 3782 L1974 3784 L2052 3786 L2131 3788 L2192 3789 L2289 3791 L2360 3792 L2526 3795 L2601 3795 L2691 3795 L2783 3795 L2927 3794 L2972 3794 L3103 3793 L3203 3792 L3304 3793 L3389 3792 L3571 3792 L3633 3792 L3846 3786 L4021 3773 L4174 3750 L4274 3733 L4337 3722 L4500 3687 L4629 3650 L4713 3621 L4820 3581 L5001 3503 L5078 3464 L5159 3419 L5226 3376 L5295 3328 L5350 3285 L5433 3216 L5499 3152 L5570 3078 L5620 3020 L5677 2949 L5720 2890 L5764 2827 L5829 2726 L5882 2631 L5921 2558 L5949 2501 L5997 2400 L6034 2319 L6075 2229 L6128 2115 L6166 2032 L6231 1889 L6269 1809 L6311 1719 L6356 1629 L6423 1505 L6499 1381 L6542 1319 L6622 1215 L6700 1126 L6729 1094 L6802 1021 L6875 953 L6932 904 L6962 878 L7037 819 L7128 754 L7182 718 L7264 669 L7381 606 L7494 554 L7588 516 L7781 453 L7934 412 L8023 392 L8066 383 L8199 356 L8277 341 L8296 337 L8345 328 L8447 309 L8491 300 L8543 291 L8609 282 L8693 279 L8716 281 L8753 289 L8788 303 L8832 331 L8878 372 L8895 391 L8912 413 L8936 450 L8955 489 L8973 538 L8986 583 L8998 638 L9009 689 L9016 720 L9034 782 L9055 841 L9079 901 L9117 987 L9144 1045 L9169 1097 L9201 1164 L9232 1228 L9265 1298 L9322 1421 L9397 1582 L9420 1629 L9480 1749 L9525 1834 L9537 1856 L9576 1929 L9651 2063 L9695 2139 L9746 2229 L9785 2296 L9850 2410 L9968 2620 L10016 2707 L10080 2827 L10128 2918 L10172 3001 L10223 3099 L10301 3245 L10389 3407 L10441 3504 L10518 3647 L10531 3672 L10578 3762 L10631 3870 L10703 4021 L10757 4139 L10842 4334 L10907 4490 L10945 4585 L10985 4688 L11019 4780 L11091 4991 L11149 5184 L11230 5465 L11246 5521 L11301 5713 L11344 5863 L11387 6014 L11423 6148 L11474 6347 L11521 6543 L11555 6694 L11589 6853 L11626 7037 L11655 7200 L11681 7349 L11709 7528 L11728 7659 L11743 7770 L11767 7966 L11771 8002 L11791 8199 L11812 8434 L11828 8663 L11840 8901 L11849 9234 L11850 9336 L11851 9679 L11851 9843 L11850 10113 L11850 10143 L11848 10306 L11846 10611 L11844 10791 L11844 10904 L11842 11152 L11841 11288 L11839 11530 L11837 11727 L11836 11841 L11835 12016 L11835 12200 L11835 12361 L11836 12561 L11837 12699 L11839 13047 L11840 13116 L11842 13531 L11844 13773 L11845 14000 L11847 14299 L11848 14448 L11850 14835 L11851 14970 L11853 15304 L11854 15543 L11858 15854 L11861 16173 L11863 16325 L11865 16444 L11866 16583 L11869 16859 L11871 17003 L11873 17147 L11876 17379 L11877 17460 L11878 17591 L11879 17680 L11881 17806 L11883 17980 L11884 18106 L11885 18196 L11886 18270 L11887 18346 L11888 18409 L11889 18496 L11889 18548 L11889 18629 L11884 18753 L11876 18836 L11868 18887 L11849 18965 L11841 18992 L11825 19030 L11807 19071 L11781 19118 L11747 19169 L11730 19190 L11687 19234 L11654 19259 L11624 19277 L11598 19289 L11551 19305 L11522 19312 L11475 19319 L11421 19327 L11411 19328 L11300 19358 L11272 19371 L11222 19400 L11185 19425 L11086 19502 L11051 19530 L11005 19567 L10953 19607 L10897 19645 L10859 19669 L10816 19691 L10768 19711 L10654 19742 L10509 19757 L10244 19766 L10164 19769 L10082 19772 L10008 19774 L9897 19771 L9828 19769 L9754 19767 L9616 19764 L9521 19761 L9398 19758 L9356 19757 L9250 19754 L9118 19751 L9001 19748 L8852 19744 L8762 19742 L8655 19739 L8552 19736 L8432 19733 L8254 19728 L8098 19724 L7890 19717 L7727 19712 L7611 19708 L7500 19705 L7404 19703 L7130 19698 L7042 19696 L6836 19697 L6704 19698 L6601 19699 L6498 19699 L6253 19705 L6066 19707 L5997 19707 L5775 19707 L5648 19707 L5518 19706 L5392 19705 L5270 19704 L5168 19703 L4980 19700 L4843 19697 L4765 19695 L4663 19694 L4513 19691 L4385 19686 L4229 19679 L4110 19674 L4005 19669 L3961 19667 L3766 19655 L3723 19652 L3632 19642 L3440 19611 L3245 19559 L3151 19526 L3080 19497 L2957 19437 L2821 19358 L2741 19307 L2684 19269 L2577 19190 L2502 19126 L2430 19055 L2411 19036 L2298 18916 L2231 18840"/></svg>
