<svg xmlns="http://www.w3.org/2000/svg" viewBox="0 0 6513 15446" fill="none" stroke="currentColor" stroke-width="215" stroke-linecap="round" stroke-linejoin="round" role="img" aria-label="Circuit layout"><path d="M5232 8940 L5204 8900 L5117 8771 L5046 8666 L5026 8637 L4969 8553 L4914 8472 L4869 8406 L4793 8294 L4721 8188 L4664 8103 L4610 8024 L4601 8010 L4525 7898 L4442 7774 L4417 7737 L4372 7670 L4187 7384 L4186 7382 L4143 7319 L4112 7270 L3996 7088 L3930 6979 L3840 6819 L3839 6818 L3759 6676 L3705 6581 L3655 6495 L3617 6428 L3568 6345 L3551 6314 L3529 6272 L3500 6221 L3434 6111 L3408 6070 L3376 6026 L3354 5998 L3311 5944 L3289 5919 L3240 5869 L3224 5857 L3193 5838 L3135 5812 L3088 5802 L3054 5802 L3048 5803 L3004 5809 L2972 5817 L2962 5820 L2953 5824 L2911 5846 L2882 5867 L2870 5875 L2851 5892 L2822 5918 L2815 5923 L2777 5959 L2768 5969 L2756 5981 L2726 6013 L2700 6039 L2652 6090 L2652 6091 L2620 6124 L2587 6159 L2574 6171 L2552 6193 L2531 6213 L2512 6233 L2481 6258 L2395 6322 L2383 6330 L2298 6378 L2250 6395 L2241 6397 L2244 6399 L2218 6404 L2122 6426 L2091 6431 L2043 6438 L2020 6437 L1988 6437 L1863 6443 L1829 6445 L1755 6454 L1671 6471 L1664 6473 L1592 6492 L1538 6510 L1537 6511 L1450 6545 L1404 6570 L1310 6626 L1301 6630 L1246 6669 L1180 6735 L1162 6754 L1149 6770 L1127 6796 L1078 6860 L1042 6917 L1020 6952 L957 7073 L924 7142 L893 7219 L877 7260 L862 7304 L840 7376 L810 7488 L797 7557 L788 7609 L774 7725 L765 7817 L760 7943 L765 8038 L766 8041 L790 8250 L803 8336 L828 8438 L840 8481 L858 8539 L889 8625 L1005 8867 L1013 8883 L1048 8946 L1077 8992 L1096 9022 L1204 9187 L1238 9236 L1337 9381 L1379 9442 L1420 9503 L1480 9590 L1505 9626 L1591 9750 L1600 9764 L1720 9938 L1723 9941 L1842 10113 L1913 10218 L1957 10282 L1974 10308 L2040 10404 L2115 10514 L2193 10632 L2237 10697 L2285 10769 L2346 10861 L2363 10886 L2454 11045 L2457 11047 L2492 11127 L2508 11160 L2544 11279 L2567 11444 L2571 11480 L2555 11618 L2550 11634 L2536 11697 L2517 11753 L2446 11915 L2429 11950 L2392 12005 L2387 12011 L2341 12072 L2273 12164 L2215 12243 L2134 12364 L2080 12488 L2075 12500 L2043 12645 L2034 12724 L2035 12839 L2045 12901 L2051 12925 L2064 12970 L2089 13032 L2094 13042 L2177 13172 L2182 13180 L2234 13240 L2240 13248 L2364 13363 L2384 13382 L2507 13490 L2538 13519 L2661 13648 L2664 13649 L2716 13723 L2744 13770 L2791 13873 L2805 13908 L2824 13967 L2841 14108 L2840 14137 L2834 14208 L2820 14289 L2803 14363 L2787 14421 L2784 14430 L2742 14553 L2738 14562 L2697 14658 L2686 14679 L2650 14742 L2644 14752 L2597 14818 L2580 14841 L2523 14905 L2522 14906 L2451 14972 L2429 14990 L2375 15031 L2374 15031 L2309 15074 L2301 15079 L2234 15116 L2214 15127 L2176 15144 L2042 15194 L2017 15203 L1973 15216 L1930 15222 L1842 15230 L1827 15231 L1765 15231 L1765 15230 L1700 15225 L1639 15214 L1593 15198 L1497 15157 L1470 15139 L1426 15100 L1422 15095 L1393 15058 L1369 15011 L1364 15001 L1348 14943 L1346 14911 L1347 14866 L1352 14804 L1356 14775 L1365 14736 L1371 14708 L1385 14634 L1397 14567 L1402 14539 L1409 14470 L1416 14394 L1417 14350 L1418 14224 L1416 14202 L1401 14033 L1401 14030 L1398 13972 L1371 13871 L1302 13665 L1290 13633 L1250 13525 L1247 13514 L1213 13420 L1208 13410 L1173 13311 L1145 13231 L1076 13001 L1072 12989 L1049 12882 L1044 12839 L1034 12675 L1033 12660 L1035 12507 L1045 12280 L1046 12276 L1050 12176 L1054 12121 L1056 12077 L1065 11851 L1067 11797 L1067 11691 L1066 11650 L1063 11454 L1063 11437 L1061 11355 L1061 11323 L1058 11217 L1056 11106 L1053 11001 L1052 10952 L1050 10814 L1050 10797 L1047 10720 L1045 10608 L1044 10562 L1040 10386 L1035 10277 L1025 10134 L1025 10132 L1005 9976 L988 9882 L988 9879 L909 9602 L909 9599 L835 9399 L792 9295 L769 9238 L744 9173 L670 8984 L656 8947 L622 8852 L611 8824 L538 8615 L511 8541 L465 8406 L434 8307 L429 8294 L395 8180 L377 8117 L342 7985 L338 7966 L299 7784 L268 7621 L253 7532 L244 7446 L242 7432 L233 7337 L227 7264 L220 7136 L216 6959 L215 6943 L217 6779 L220 6662 L222 6612 L227 6534 L236 6400 L242 6330 L256 6194 L259 6162 L291 5949 L296 5916 L331 5741 L365 5600 L369 5584 L405 5448 L429 5359 L470 5221 L521 5048 L523 5045 L603 4772 L649 4621 L698 4459 L716 4401 L819 4059 L820 4057 L861 3921 L895 3816 L954 3647 L1007 3492 L1042 3397 L1077 3303 L1079 3301 L1138 3150 L1165 3085 L1238 2906 L1274 2818 L1321 2707 L1331 2683 L1389 2551 L1434 2448 L1493 2315 L1542 2203 L1565 2153 L1606 2068 L1618 2041 L1688 1897 L1735 1800 L1776 1725 L1808 1667 L1819 1645 L1861 1571 L1867 1561 L1935 1454 L1943 1443 L1984 1389 L1992 1379 L2049 1314 L2067 1293 L2119 1250 L2126 1245 L2172 1213 L2179 1209 L2232 1183 L2241 1178 L2286 1165 L2320 1158 L2346 1159 L2368 1161 L2393 1167 L2422 1181 L2479 1217 L2494 1227 L2523 1250 L2534 1262 L2541 1269 L2567 1296 L2582 1310 L2601 1331 L2617 1349 L2653 1389 L2667 1406 L2697 1440 L2735 1482 L2736 1483 L2796 1542 L2797 1543 L2852 1588 L2880 1608 L2930 1637 L2971 1657 L2980 1661 L3036 1679 L3055 1682 L3116 1688 L3147 1688 L3189 1685 L3242 1674 L3255 1671 L3283 1662 L3301 1654 L3336 1638 L3355 1628 L3377 1616 L3410 1594 L3443 1568 L3459 1552 L3508 1497 L3518 1486 L3547 1435 L3574 1371 L3579 1354 L3594 1312 L3594 1296 L3595 1284 L3601 1236 L3602 1229 L3605 1151 L3605 1121 L3605 1059 L3604 981 L3603 932 L3604 860 L3609 811 L3616 769 L3626 730 L3674 610 L3692 573 L3714 544 L3733 521 L3775 466 L3777 465 L3825 415 L3869 379 L3940 321 L3990 287 L4020 270 L4022 269 L4030 266 L4036 263 L4059 252 L4072 247 L4132 227 L4158 223 L4224 216 L4237 215 L4268 217 L4279 222 L4306 237 L4343 261 L4344 262 L4396 325 L4410 337 L4445 355 L4478 363 L4493 364 L4515 363 L4534 360 L4544 358 L4592 350 L4617 345 L4642 341 L4676 333 L4706 325 L4725 320 L4775 307 L4803 300 L4823 296 L4843 291 L4873 284 L4938 268 L4974 258 L5004 252 L5042 245 L5071 239 L5116 231 L5133 229 L5152 227 L5195 226 L5243 230 L5251 231 L5291 241 L5299 245 L5331 262 L5352 278 L5363 290 L5389 327 L5398 338 L5410 362 L5417 378 L5428 411 L5430 419 L5443 468 L5445 478 L5453 529 L5454 536 L5458 582 L5460 597 L5461 677 L5460 703 L5460 759 L5463 862 L5464 880 L5466 924 L5468 943 L5473 1076 L5475 1120 L5479 1186 L5486 1264 L5492 1330 L5493 1355 L5499 1450 L5506 1577 L5506 1580 L5514 1754 L5515 1768 L5519 1868 L5520 1890 L5526 2029 L5531 2119 L5536 2226 L5541 2332 L5541 2336 L5553 2577 L5555 2625 L5557 2679 L5559 2695 L5566 2830 L5566 2833 L5574 3001 L5575 3039 L5582 3193 L5588 3288 L5589 3318 L5597 3474 L5597 3477 L5604 3597 L5605 3634 L5617 3839 L5624 3952 L5631 4045 L5639 4156 L5646 4231 L5663 4454 L5665 4467 L5678 4628 L5678 4645 L5685 4744 L5697 4994 L5698 5016 L5703 5122 L5705 5151 L5710 5260 L5714 5326 L5718 5397 L5726 5494 L5728 5529 L5738 5647 L5738 5651 L5759 5889 L5763 5932 L5770 6006 L5770 6010 L5782 6150 L5783 6163 L5796 6309 L5799 6337 L5819 6573 L5822 6610 L5833 6724 L5834 6744 L5849 6911 L5849 6914 L5865 7086 L5868 7116 L5880 7249 L5885 7305 L5895 7428 L5907 7547 L5925 7789 L5936 7945 L5941 8015 L5948 8122 L5949 8156 L5958 8316 L5963 8409 L5968 8511 L5970 8551 L5977 8670 L5981 8762 L5993 8965 L6001 9122 L6005 9180 L6009 9275 L6020 9483 L6022 9512 L6029 9662 L6031 9683 L6043 9912 L6048 9991 L6055 10127 L6059 10190 L6067 10344 L6074 10467 L6082 10630 L6085 10681 L6096 10872 L6096 10891 L6103 11036 L6109 11127 L6118 11295 L6121 11328 L6127 11420 L6138 11562 L6153 11711 L6160 11779 L6174 11874 L6209 12131 L6211 12147 L6232 12303 L6242 12379 L6244 12387 L6253 12460 L6261 12524 L6265 12550 L6277 12639 L6278 12640 L6286 12721 L6291 12766 L6292 12774 L6295 12827 L6297 12861 L6298 12924 L6296 12978 L6295 13002 L6292 13027 L6285 13089 L6280 13116 L6276 13137 L6239 13227 L6238 13227 L6223 13248 L6218 13253 L6189 13280 L6178 13287 L6157 13300 L6094 13322 L6093 13322 L6056 13326 L6036 13325 L6035 13324 L6002 13320 L5993 13319 L5968 13312 L5963 13309 L5921 13291 L5918 13290 L5899 13280 L5885 13270 L5881 13268 L5834 13229 L5812 13210 L5799 13196 L5764 13158 L5760 13153 L5732 13119 L5731 13118 L5696 13070 L5691 13061 L5665 13016 L5644 12978 L5617 12930 L5616 12928 L5588 12877 L5551 12810 L5546 12800 L5505 12729 L5494 12710 L5473 12671 L5466 12655 L5391 12472 L5390 12470 L5375 12419 L5372 12384 L5365 12319 L5363 12299 L5360 12230 L5362 12142 L5363 12123 L5377 12000 L5378 11986 L5398 11897 L5411 11854 L5426 11807 L5441 11763 L5479 11659 L5483 11645 L5513 11563 L5543 11484 L5597 11334 L5597 11331 L5674 11103 L5691 11042 L5707 10974 L5735 10819 L5743 10769 L5746 10741 L5753 10639 L5753 10613 L5756 10484 L5755 10469 L5754 10330 L5753 10314 L5732 10118 L5723 10046 L5706 9957 L5685 9897 L5680 9877 L5638 9750 L5621 9706 L5556 9559 L5497 9427 L5486 9398 L5430 9264 L5419 9236 L5354 9116 L5276 9001 L5246 8960 L5221 8923 L5211 8909"/></svg>
