<svg xmlns="http://www.w3.org/2000/svg" viewBox="0 0 14580 21337" fill="none" stroke="currentColor" stroke-width="296" stroke-linecap="round" stroke-linejoin="round" role="img" aria-label="Circuit layout"><path d="M13944 16002 L13928 15923 L13926 15916 L13895 15737 L13890 15713 L13863 15551 L13855 15510 L13829 15363 L13818 15305 L13796 15176 L13782 15101 L13763 14989 L13745 14897 L13729 14800 L13709 14690 L13696 14610 L13673 14483 L13663 14419 L13636 14273 L13629 14228 L13600 14064 L13596 14036 L13563 13854 L13562 13843 L13528 13649 L13526 13642 L13494 13455 L13489 13431 L13460 13261 L13452 13218 L13426 13066 L13408 12971 L13395 12889 L13372 12759 L13361 12693 L13341 12579 L13327 12496 L13302 12365 L13291 12300 L13264 12149 L13257 12102 L13227 11934 L13223 11905 L13189 11718 L13188 11707 L13154 11510 L13152 11503 L13119 11311 L13113 11286 L13084 11112 L13076 11070 L13050 10913 L13038 10852 L13014 10714 L13000 10635 L12980 10515 L12962 10417 L12945 10315 L12924 10200 L12910 10116 L12886 9982 L12875 9916 L12848 9764 L12839 9715 L12809 9544 L12805 9515 L12771 9328 L12769 9315 L12727 9073 L12725 9066 L12693 8873 L12688 8847 L12657 8662 L12649 8618 L12622 8461 L12611 8400 L12587 8261 L12573 8184 L12554 8071 L12538 7980 L12525 7898 L12513 7836 L12507 7793 L12491 7702 L12484 7655 L12462 7540 L12462 7533 L12442 7427 L12441 7424 L12426 7342 L12421 7324 L12408 7260 L12402 7239 L12388 7191 L12382 7177 L12363 7132 L12355 7115 L12337 7081 L12324 7063 L12306 7037 L12288 7019 L12271 7000 L12249 6983 L12233 6973 L12203 6959 L12188 6953 L12151 6944 L12140 6942 L12096 6939 L12089 6938 L12040 6933 L12038 6932 L11994 6921 L11992 6921 L11957 6902 L11953 6900 L11927 6875 L11922 6868 L11905 6841 L11899 6829 L11889 6802 L11884 6786 L11878 6763 L11875 6744 L11872 6723 L11869 6699 L11868 6681 L11867 6652 L11867 6637 L11869 6602 L11870 6590 L11875 6546 L11876 6538 L11883 6487 L11884 6483 L11894 6424 L11894 6422 L11906 6360 L11908 6352 L11919 6288 L11922 6272 L11933 6211 L11936 6186 L11946 6128 L11952 6094 L11962 6039 L11969 5993 L11975 5951 L11984 5885 L11989 5851 L11997 5789 L12003 5743 L12012 5669 L12015 5630 L12023 5518 L12023 5511 L12027 5387 L12027 5383 L12026 5258 L12024 5242 L12020 5125 L12018 5096 L12010 4988 L12004 4921 L11999 4848 L11990 4765 L11983 4705 L11971 4606 L11966 4558 L11950 4445 L11945 4409 L11922 4280 L11919 4258 L11892 4113 L11891 4104 L11858 3950 L11857 3944 L11813 3762 L11807 3740 L11768 3606 L11757 3573 L11714 3449 L11696 3402 L11653 3294 L11626 3232 L11584 3140 L11531 3038 L11505 2988 L11439 2874 L11418 2839 L11339 2715 L11324 2695 L11227 2561 L11220 2553 L11107 2417 L11103 2413 L10987 2287 L10971 2272 L10849 2159 L10820 2133 L10710 2046 L10666 2012 L10563 1939 L10503 1899 L10425 1849 L10335 1795 L10267 1757 L10188 1715 L10103 1673 L10007 1628 L9936 1597 L9820 1551 L9763 1529 L9631 1483 L9588 1470 L9437 1426 L9410 1418 L9239 1380 L9230 1378 L9076 1350 L9070 1350 L8891 1325 L8868 1323 L8707 1306 L8667 1304 L8521 1292 L8464 1289 L8335 1282 L8262 1279 L8149 1275 L8058 1273 L7963 1271 L7856 1271 L7777 1271 L7652 1273 L7590 1274 L7447 1274 L7403 1274 L7246 1274 L7216 1274 L7007 1275 L6995 1275 L6807 1278 L6801 1278 L6620 1281 L6597 1282 L6431 1287 L6391 1288 L6244 1293 L6186 1296 L6056 1300 L5981 1304 L5868 1309 L5776 1314 L5680 1318 L5575 1323 L5502 1326 L5368 1333 L5346 1334 L5213 1342 L5205 1342 L5088 1348 L5078 1349 L5024 1351 L5006 1353 L4922 1355 L4910 1356 L4830 1357 L4811 1358 L4747 1355 L4724 1353 L4671 1346 L4642 1342 L4600 1333 L4567 1326 L4533 1317 L4498 1306 L4474 1296 L4429 1275 L4421 1271 L4379 1241 L4375 1239 L4337 1199 L4336 1198 L4304 1144 L4293 1125 L4267 1080 L4252 1057 L4226 1024 L4204 1001 L4178 977 L4136 946 L4121 937 L4069 909 L4058 904 L3993 879 L3988 877 L3914 856 L3912 856 L3833 840 L3823 839 L3745 829 L3726 827 L3653 819 L3624 816 L3554 812 L3514 809 L3450 803 L3398 797 L3341 790 L3276 780 L3227 771 L3149 756 L3110 747 L3022 729 L2987 721 L2833 688 L2808 682 L2690 655 L2687 654 L2559 620 L2542 615 L2425 581 L2395 573 L2289 541 L2248 529 L2152 502 L2096 486 L2010 464 L1941 447 L1867 428 L1782 408 L1721 394 L1624 370 L1577 359 L1473 336 L1442 330 L1341 312 L1324 309 L1217 299 L1209 299 L1094 296 L1090 297 L983 320 L970 324 L874 350 L851 359 L772 393 L743 410 L680 451 L645 477 L594 519 L557 558 L520 599 L482 651 L457 688 L421 754 L405 787 L373 869 L364 895 L340 993 L335 1010 L316 1125 L315 1131 L303 1257 L304 1262 L299 1384 L299 1401 L296 1515 L297 1544 L297 1649 L297 1691 L297 1784 L299 1839 L300 1921 L302 1989 L304 2049 L307 2144 L307 2191 L309 2278 L309 2335 L310 2416 L309 2457 L309 2570 L308 2605 L307 2734 L306 2754 L305 2884 L305 2891 L306 3016 L306 3021 L309 3133 L310 3148 L318 3242 L324 3284 L336 3345 L348 3394 L362 3443 L383 3498 L400 3535 L434 3591 L452 3617 L500 3676 L516 3692 L581 3750 L592 3759 L675 3815 L679 3818 L779 3871 L783 3874 L885 3919 L899 3926 L996 3965 L1021 3976 L1112 4011 L1148 4025 L1230 4056 L1279 4076 L1352 4105 L1413 4130 L1477 4156 L1551 4189 L1604 4211 L1693 4250 L1735 4268 L1837 4313 L1869 4327 L1995 4381 L2016 4389 L2149 4447 L2156 4449 L2297 4512 L2302 4515 L2427 4572 L2458 4586 L2571 4640 L2617 4662 L2719 4708 L2752 4723 L2868 4775 L2916 4797 L3019 4843 L3081 4871 L3173 4913 L3250 4949 L3329 4984 L3420 5026 L3485 5056 L3591 5106 L3643 5130 L3763 5190 L3800 5209 L3934 5279 L3956 5292 L4104 5377 L4111 5381 L4266 5479 L4272 5484 L4417 5581 L4437 5595 L4569 5686 L4603 5709 L4720 5789 L4767 5822 L4871 5897 L4932 5942 L5022 6007 L5096 6062 L5172 6118 L5260 6181 L5323 6227 L5425 6301 L5474 6337 L5591 6421 L5626 6447 L5756 6542 L5777 6558 L5922 6663 L5930 6669 L6083 6779 L6089 6783 L6235 6890 L6255 6904 L6387 7000 L6421 7024 L6540 7111 L6588 7146 L6693 7222 L6755 7267 L6846 7333 L6921 7388 L6984 7435 L7087 7509 L7138 7546 L7231 7613 L7291 7657 L7377 7720 L7424 7754 L7569 7858 L7611 7890 L7753 7993 L7775 8009 L7921 8115 L7929 8120 L8082 8232 L8088 8237 L8235 8343 L8256 8357 L8389 8454 L8423 8479 L8541 8565 L8586 8599 L8681 8668 L8737 8708 L8809 8760 L8851 8790 L8889 8819 L8948 8863 L8991 8895 L9056 8944 L9084 8967 L9149 9019 L9167 9035 L9233 9094 L9242 9103 L9302 9168 L9305 9172 L9353 9246 L9363 9264 L9390 9331 L9399 9361 L9414 9430 L9421 9472 L9428 9537 L9435 9589 L9441 9643 L9444 9710 L9445 9757 L9452 9832 L9456 9868 L9469 9954 L9474 9980 L9498 10077 L9503 10092 L9542 10197 L9544 10203 L9598 10313 L9601 10318 L9657 10408 L9673 10430 L9732 10507 L9758 10537 L9820 10602 L9842 10622 L9921 10690 L9956 10719 L10030 10781 L10071 10819 L10126 10875 L10169 10927 L10209 10983 L10250 11055 L10276 11109 L10316 11205 L10332 11252 L10367 11364 L10376 11398 L10406 11526 L10410 11548 L10437 11694 L10437 11702 L10464 11857 L10466 11863 L10492 12013 L10496 12034 L10522 12171 L10529 12206 L10553 12333 L10564 12389 L10586 12515 L10598 12583 L10614 12680 L10629 12761 L10645 12846 L10663 12945 L10675 13015 L10696 13129 L10706 13184 L10730 13316 L10737 13356 L10764 13505 L10768 13530 L10799 13695 L10799 13704 L10832 13880 L10833 13887 L10863 14058 L10868 14081 L10896 14236 L10905 14279 L10933 14439 L10944 14498 L10966 14620 L10979 14693 L10998 14802 L11015 14892 L11028 14968 L11051 15091 L11061 15151 L11081 15260 L11095 15336 L11117 15459 L11128 15519 L11153 15662 L11161 15705 L11191 15864 L11195 15891 L11228 16067 L11229 16078 L11263 16264 L11265 16270 L11297 16452 L11302 16476 L11330 16639 L11338 16680 L11365 16827 L11376 16884 L11398 17014 L11413 17088 L11433 17201 L11449 17292 L11466 17388 L11486 17497 L11500 17576 L11523 17700 L11534 17763 L11559 17906 L11567 17950 L11596 18100 L11600 18126 L11630 18291 L11631 18301 L11665 18489 L11666 18495 L11699 18677 L11704 18700 L11733 18864 L11741 18905 L11768 19051 L11779 19108 L11802 19239 L11817 19313 L11838 19426 L11856 19518 L11874 19614 L11897 19719 L11911 19794 L11936 19907 L11948 19960 L11977 20075 L11986 20111 L12023 20237 L12029 20259 L12072 20381 L12074 20387 L12123 20508 L12126 20511 L12174 20610 L12177 20615 L12239 20713 L12242 20717 L12311 20800 L12321 20811 L12396 20877 L12417 20891 L12491 20940 L12523 20957 L12594 20989 L12638 21005 L12704 21023 L12761 21032 L12820 21039 L12892 21041 L12942 21039 L13022 21029 L13062 21022 L13153 20998 L13181 20989 L13282 20948 L13300 20942 L13406 20885 L13414 20882 L13557 20785 L13582 20764 L13660 20695 L13689 20666 L13756 20595 L13792 20550 L13845 20483 L13900 20404 L13926 20365 L13981 20268 L13998 20237 L14053 20122 L14062 20102 L14117 19962 L14124 19943 L14165 19815 L14174 19782 L14205 19664 L14215 19616 L14236 19509 L14246 19446 L14260 19350 L14268 19270 L14275 19188 L14280 19095 L14283 19034 L14284 18945 L14284 18912 L14281 18769 L14281 18744 L14272 18583 L14272 18574 L14261 18427 L14260 18403 L14246 18239 L14246 18231 L14230 18057 L14228 18049 L14211 17882 L14208 17858 L14191 17706 L14187 17672 L14174 17562 L14168 17509 L14152 17383 L14141 17310 L14128 17202 L14115 17113 L14102 17021 L14086 16914 L14075 16839 L14056 16716 L14047 16656 L14025 16516 L14018 16472 L13993 16315 L13989 16288 L13958 16114 L13957 16104 L13944 16002"/></svg>
